<svg width="180" height="162" viewBox="0 0 180 162" fill="none" xmlns="http://www.w3.org/2000/svg">
<rect x="63" y="14" width="117" height="16" rx="8" fill="white"/>
<rect x="63" y="131" width="117" height="16" rx="8" fill="white"/>
<path d="M63 80C63 75.5817 66.5817 72 71 72H172C176.418 72 180 75.5817 180 80V80C180 84.4183 176.418 88 172 88H71C66.5817 88 63 84.4183 63 80V80Z" fill="white"/>
<path fill-rule="evenodd" clip-rule="evenodd" d="M22.5 45C34.9264 45 45 34.9264 45 22.5C45 10.0736 34.9264 0 22.5 0C10.0736 0 0 10.0736 0 22.5C0 34.9264 10.0736 45 22.5 45ZM22 37C30.2843 37 37 30.2843 37 22C37 13.7157 30.2843 7 22 7C13.7157 7 7 13.7157 7 22C7 30.2843 13.7157 37 22 37Z" fill="white"/>
<path fill-rule="evenodd" clip-rule="evenodd" d="M22.5 162C34.9264 162 45 151.926 45 139.5C45 127.074 34.9264 117 22.5 117C10.0736 117 0 127.074 0 139.5C0 151.926 10.0736 162 22.5 162ZM22 154C30.2843 154 37 147.284 37 139C37 130.716 30.2843 124 22 124C13.7157 124 7 130.716 7 139C7 147.284 13.7157 154 22 154Z" fill="white"/>
<path fill-rule="evenodd" clip-rule="evenodd" d="M22.5 103C34.9264 103 45 92.9264 45 80.5C45 68.0736 34.9264 58 22.5 58C10.0736 58 0 68.0736 0 80.5C0 92.9264 10.0736 103 22.5 103ZM22 95C30.2843 95 37 88.2843 37 80C37 71.7157 30.2843 65 22 65C13.7157 65 7 71.7157 7 80C7 88.2843 13.7157 95 22 95Z" fill="white"/>
</svg>
